<svg xmlns="http://www.w3.org/2000/svg" width="123.836" height="26.928"><path d="M21.164 16.704c0-5.292-2.448-7.884-6.516-7.884-2.232 0-5.076 2.7-6.156 3.456C8.492 5.148 8.6 1.62 8.096 0 5.576.072 1.688.54.104.756-.04.792-.04.9.14 1.008l2.844 1.548c-.108 2.34-.288 7.344-.288 11.376 0 7.236.036 10.98.18 12.708.036.216.216.144.36.072.54-.324 1.44-.9 2.088-1.512 1.404.864 3.168 1.584 6.264 1.584 5.292 0 9.576-3.276 9.576-10.08Zm-9.9 9.396c-1.332-.252-2.628-1.008-3.24-2.376.18-2.664.468-5.832.468-11.232.684-.252 1.836-.612 3.528-.612 2.592 0 3.348 1.836 3.348 5.832 0 3.744-.54 7.164-1.62 8.46-.54.108-1.26.18-2.484-.072Zm23.508.036-3.276-1.656c.108-2.52.144-6.372.144-8.676 0-1.296 0-2.34-.036-3.168.396-.18 1.152-.54 2.16-.72.792.108 3.024 1.944 4.176 2.556.144.036.288.036.468 0 .36-.432 1.08-2.16 1.08-3.816.036-1.332-.324-1.908-2.016-1.836-1.944.036-4.392 2.376-5.868 3.636-.036-1.692-.144-2.592-.36-3.276-2.556 0-7.236.252-7.848.324-.216.036-.216.18-.036.288l2.736 1.548c-.072 1.404-.144 3.672-.144 6.732 0 2.52.072 4.896.144 6.408l-2.376 1.656c-.18.144-.216.288 0 .288h11.052c.18 0 .144-.216 0-.288Zm5.76-8.208c0 6.444 3.816 8.928 9.468 8.928 2.7 0 5.472-1.584 7.056-3.744.216-.324-.036-.396-.18-.288-1.368.828-3.024 1.116-5.004 1.116-3.816 0-5.22-2.34-5.436-7.488l10.368.18a.644.644 0 0 0 .36-.324c.216-4.392-2.088-7.668-7.092-7.668-5.04 0-9.54 2.808-9.54 9.288Zm5.904-1.728c-.036-3.6.756-6.156 1.404-7.02.576-.036 1.008-.072 1.8.036 1.728.216 2.304 1.548 2.304 4.752 0 .54-.036 1.152-.108 1.764l-5.4.468Zm12.744 1.728c0 6.444 3.816 8.928 9.468 8.928 2.7 0 5.472-1.584 7.056-3.744.216-.324-.036-.396-.18-.288-1.368.828-3.024 1.116-5.004 1.116-3.816 0-5.22-2.34-5.436-7.488l10.368.18a.644.644 0 0 0 .36-.324c.216-4.392-2.088-7.668-7.092-7.668-5.04 0-9.54 2.808-9.54 9.288Zm5.904-1.728c-.036-3.6.756-6.156 1.404-7.02.576-.036 1.008-.072 1.8.036 1.728.216 2.304 1.548 2.304 4.752 0 .54-.036 1.152-.108 1.764l-5.4.468Zm30.312 3.456-4.752 6.156-7.02.288c1.44-1.764 4.716-6.12 6.624-8.784 1.98-2.772 4.5-6.372 5.364-7.884.144-.288.18-.396-.288-.396l-5.148.072-9.72-.072c-.108.108-.288.252-.432.432-.288 1.224-.864 4.5-1.08 5.724-.036.252.072.396.432 0l4.572-5.508 6.228-.324c-1.404 1.656-4.572 5.508-6.408 8.064-2.052 2.916-4.716 6.912-5.724 8.568-.18.324-.18.432.252.432l5.292-.072 10.764.072c.072 0 .36-.288.396-.396.252-1.08.864-4.896 1.044-6.372.036-.252-.108-.324-.396 0Zm2.808-1.728c0 6.444 3.816 8.928 9.468 8.928 2.7 0 5.472-1.584 7.056-3.744.216-.324-.036-.396-.18-.288-1.368.828-3.024 1.116-5.004 1.116-3.816 0-5.22-2.34-5.436-7.488l10.368.18a.644.644 0 0 0 .36-.324c.216-4.392-2.088-7.668-7.092-7.668-5.04 0-9.54 2.808-9.54 9.288Zm5.904-1.728c-.036-3.6.756-6.156 1.404-7.02.576-.036 1.008-.072 1.8.036 1.728.216 2.304 1.548 2.304 4.752 0 .54-.036 1.152-.108 1.764l-5.4.468Zm16.56 10.728c1.836 0 3.168-1.368 3.168-3.132 0-1.836-1.332-3.204-3.168-3.204a3.188 3.188 0 0 0-3.204 3.204c0 1.764 1.476 3.132 3.204 3.132Z" fill="#fff" fill-rule="evenodd" data-name="logo-dark"/></svg>