<svg xmlns="http://www.w3.org/2000/svg" width="188.611" height="29.629" viewBox="865.694 1576.686 188.611 29.629"><g data-name="logo (2)"><g data-name="Group 1669"><path d="M918.345 1601.307h-12.75v-18.788h2.22v16.466l-.259.258h10.737v2.064h.052Z" fill="#3e6780" fill-rule="evenodd" data-name="Path 2183"/><path d="M933.727 1594.958h-11.82l.257.259c.362 2.632 1.91 4.284 4.852 4.284 1.6 0 2.994-.568 4.027-1.6l1.497 1.497c-1.394 1.393-3.304 2.116-5.575 2.116-4.852 0-7.072-3.2-7.072-7.433 0-4.49 2.53-7.64 6.969-7.64 4.645 0 6.865 3.252 6.865 7.64a2.5 2.5 0 0 1 0 .877Zm-1.91-1.961-.258-.207c-.362-2.529-1.807-4.284-4.646-4.284-2.942 0-4.387 1.858-4.749 4.284l-.258.207h9.91Z" fill="#3e6780" fill-rule="evenodd" data-name="Path 2184"/><path d="m949.831 1586.7-6.194 14.607h-2.323l-6.245-14.607h2.374l4.388 10.478.62 1.858h.05l.62-1.858 4.388-10.478h2.322Z" fill="#3e6780" fill-rule="evenodd" data-name="Path 2185"/><path d="M964.8 1594.958h-11.82l.258.259c.362 2.632 1.91 4.284 4.852 4.284 1.6 0 2.994-.568 4.026-1.6l1.497 1.497c-1.393 1.393-3.303 2.116-5.574 2.116-4.852 0-7.072-3.2-7.072-7.433 0-4.49 2.53-7.64 6.968-7.64 4.646 0 6.866 3.252 6.866 7.64.051.361 0 .568 0 .877Zm-1.91-1.961-.257-.207c-.362-2.529-1.807-4.284-4.646-4.284-2.942 0-4.387 1.858-4.749 4.284l-.258.207h9.91Z" fill="#3e6780" fill-rule="evenodd" data-name="Path 2186"/><path d="M975.537 1588.764h-.723c-2.116 0-4.49 1.394-4.49 5.317v7.226h-2.117V1586.7h2.117v2.529h.051c.826-1.807 2.788-2.684 4.646-2.684h.464v2.22h.052Z" fill="#3e6780" fill-rule="evenodd" data-name="Path 2187"/><path d="M990.145 1601.307h-2.116v-1.29h-.052c-1.29 1.136-3.045 1.549-4.749 1.549-2.942 0-5.988-1.136-5.988-4.491 0-4.594 5.782-4.75 9.343-4.75.517 0 1.342.053 1.6.104l-.258-.258v-.31c0-2.529-1.858-3.303-4.026-3.303-1.6 0-3.407.361-4.594 1.445l-1.497-1.445c1.807-1.497 3.768-2.013 6.091-2.013 3.097 0 6.143 1.239 6.143 5.316v9.446h.103Zm-1.91-7.071c-.258 0-1.032-.052-1.497-.052-2.53 0-7.381-.051-7.381 2.89 0 1.962 2.271 2.478 3.871 2.478 1.497 0 4.749-.413 4.749-2.529v-2.58l.258-.207Z" fill="#3e6780" fill-rule="evenodd" data-name="Path 2188"/><path d="M1006.92 1586.7v13.369c0 3.974-2.116 6.245-6.606 6.245-2.323 0-4.285-.67-5.988-1.961l1.548-1.549c1.136.93 2.84 1.497 4.44 1.497 2.942 0 4.49-1.548 4.49-4.284v-1.807h-.051c-1.187 1.342-2.736 1.91-4.698 1.91-4.439 0-6.658-2.736-6.658-6.813 0-3.768 2.271-6.917 6.658-6.917 1.962 0 3.717.774 4.698 2.013h.051v-1.807h2.117v.104Zm-6.761 1.806c-3.149 0-4.646 2.065-4.646 4.852 0 2.89 1.549 4.75 4.646 4.75 3.355 0 4.852-2.014 4.852-4.75 0-2.89-1.704-4.852-4.852-4.852Z" fill="#3e6780" fill-rule="evenodd" data-name="Path 2189"/><path d="M1024.11 1594.958h-11.82l.257.259c.361 2.632 1.91 4.284 4.852 4.284 1.6 0 2.994-.568 4.026-1.6l1.497 1.497c-1.393 1.393-3.303 2.116-5.574 2.116-4.853 0-7.072-3.2-7.072-7.433 0-4.49 2.58-7.64 6.968-7.64 4.646 0 6.865 3.252 6.865 7.64v.877Zm-1.91-1.961-.258-.207c-.362-2.529-1.807-4.284-4.646-4.284-2.942 0-4.388 1.858-4.749 4.284l-.258.207h9.91Z" fill="#3e6780" fill-rule="evenodd" data-name="Path 2190"/><path d="M1042.176 1601.307h-1.24l-2.27-4.903c-1.033-2.271-2.581-3.304-5.265-3.304h-5.007l.103.103v8.104h-1.032v-18.788h7.639c3.252 0 5.73 1.703 5.73 5.316 0 2.375-1.394 4.44-4.233 5.007v.052c1.445.516 2.426 1.806 2.994 3.097l2.58 5.316Zm-7.02-17.808h-6.71l.103.155v8.31l-.104.155h6.504c3.407 0 4.852-2.064 4.852-4.284 0-3.097-2.064-4.336-4.645-4.336Z" fill="#3e6780" fill-rule="evenodd" data-name="Path 2191"/><path d="M1054.306 1601.307h-1.239l-3.82-5.523-.67-1.135h-.052l-.671 1.135-3.872 5.523h-1.239l5.162-7.38-5.11-7.279h1.239l3.716 5.368.671 1.136h.052l.671-1.136 3.768-5.368h1.239l-5.11 7.278 5.265 7.381Z" fill="#3e6780" fill-rule="evenodd" data-name="Path 2192"/></g><g data-name="Group 1670"><path d="M882.677 1579.576a11.849 11.849 0 0 0-7.691 2.84c.826-.207 1.703-.31 2.58-.31 5.833 0 10.685 4.232 11.666 9.755l-.155-.619c-1.239 5.213-5.936 9.136-11.562 9.136-1.084 0-2.116-.155-3.149-.413a11.845 11.845 0 0 0 8.26 3.356c.877 0 1.754-.104 2.58-.31.62-.568 1.239-1.136 1.755-1.807-.516.671-1.084 1.29-1.755 1.807 5.317-1.187 9.291-5.936 9.291-11.614.052-6.452-5.265-11.82-11.82-11.82Zm6.762 13.782v.671-.67Zm-.155-1.393c.051.206.051.413.103.567a1.855 1.855 0 0 1-.103-.567Zm.103.722c0 .155.052.362.052.516-.052-.154-.052-.36-.052-.516Z" fill="#a6c9d9" fill-rule="evenodd" data-name="Path 2193"/><path d="M866.004 1591.294c.98 4.232 4.284 7.587 8.414 8.723-2.22-2.168-3.613-5.162-3.613-8.517 0-3.613 1.6-6.865 4.18-9.033.827-.207 1.704-.31 2.582-.31 5.626 0 10.323 3.923 11.562 9.137.206-.878.31-1.807.31-2.736 0-6.556-5.317-11.872-11.872-11.872-6.556 0-11.873 5.316-11.873 11.872 0 .929.104 1.858.31 2.736" fill="#a6c9d9" fill-rule="evenodd" data-name="Path 2194"/><path d="M889.439 1594.03c0-.93-.104-1.859-.31-2.736-1.239 5.213-5.936 9.136-11.562 9.136-1.084 0-2.117-.155-3.15-.413l-.412-.413c-.258-.258-.516-.568-.774-.877a6.573 6.573 0 0 1-.671-.981 4.539 4.539 0 0 1-.31-.516 9.624 9.624 0 0 1-.516-1.033c-.104-.155-.155-.361-.207-.568-.155-.36-.258-.774-.361-1.135a11.725 11.725 0 0 1-.413-3.046c0-3.613 1.6-6.865 4.181-9.033-.31.052-.62.155-.93.258-.102.052-.206.052-.309.104-.206.051-.413.154-.568.206-.103.052-.206.103-.36.155a2.411 2.411 0 0 0-.517.258 2.516 2.516 0 0 1-.361.155c-.155.103-.31.155-.465.258-.103.052-.206.155-.361.206l-.465.31c-.206.155-.413.31-.67.465-.104.103-.207.155-.31.258-.155.103-.259.258-.414.361l-.206.207c-.155.154-.258.31-.413.413-.052.051-.103.154-.155.206-.155.155-.258.31-.413.516.103.052.103.103.052.155-.774 1.084-1.445 2.271-1.807 3.562v.051a4.3 4.3 0 0 0-.206.775c-.207.877-.31 1.806-.31 2.735 0 6.556 5.317 11.872 11.872 11.872 2.942 0 5.626-1.084 7.691-2.839-.413.104-.826.155-1.29.207.413-.052.877-.103 1.29-.207a11.874 11.874 0 0 0 4.13-9.033Zm-15.021 5.987c.413.413.826.723 1.29 1.084-.413-.361-.877-.723-1.29-1.084Z" fill="#a6c9d9" fill-rule="evenodd" data-name="Path 2195"/><path d="M878.65 1582.209c.31.051.568.051.878.103.052 0 .103 0 .155.052a5.4 5.4 0 0 1 .877.206h.104c.258.052.567.155.825.258.052 0 .052 0 .104.052.258.103.568.206.826.361.051 0 .103.052.103.052.258.103.516.258.774.413.052 0 .052.051.103.051.517.31 1.033.671 1.549 1.033l.051.051c.259.207.465.413.672.62l.051.051c.671.671 1.29 1.394 1.807 2.22.722 1.084 1.239 2.323 1.548 3.613.207-.877.31-1.806.31-2.736 0-3.355-1.394-6.349-3.613-8.516a12.529 12.529 0 0 0-3.149-.413 11.849 11.849 0 0 0-7.691 2.839c.103 0 .206-.052.31-.052.103 0 .206-.052.31-.052.258-.051.516-.103.825-.103h.258c.31 0 .62-.052.93-.052.31 0 .619 0 .929.052.051-.103.103-.103.154-.103Z" fill="#5096b5" fill-rule="evenodd" data-name="Path 2196"/><path d="M889.439 1594.03c0-.93-.104-1.859-.31-2.736-1.239 5.213-5.936 9.136-11.562 9.136-1.084 0-2.117-.155-3.15-.413a11.844 11.844 0 0 0 8.26 3.355c.877 0 1.755-.103 2.58-.31 2.581-2.168 4.182-5.42 4.182-9.033Z" fill="#5096b5" fill-rule="evenodd" data-name="Path 2197"/><path d="M870.805 1591.5c0-3.613 1.6-6.865 4.18-9.033-4.438.98-7.949 4.44-8.98 8.827.98 4.232 4.283 7.587 8.413 8.723-2.22-2.168-3.613-5.213-3.613-8.517Z" fill="#5096b5" fill-rule="evenodd" data-name="Path 2198"/></g></g></svg>