<svg xmlns="http://www.w3.org/2000/svg" width="31" height="31" viewBox="390 75.95 31 31"><g data-name="Group 1755"><path d="M390 91.4a15.5 15.5 0 1 1 0 .1z" fill="#171719" fill-rule="evenodd" data-name="Ellipse 1"/><path d="M410.993 90.88v5.156h2.222v-5.678c0-2.448-1.371-3.525-3.143-3.525-1.91 0-2.778 1.25-2.951 2.032h-.07v-1.858h-2.223v9.03h2.223v-5.158c0-1.476.886-2.205 2.101-2.205 1.198 0 1.84.73 1.84 2.205Z" fill="#fff" fill-rule="evenodd" data-name="Path 11"/><path d="M401.878 96.391c.515 0 1.294-.067 2.034-.335-.29-.828-.396-1.17-.664-1.916-.188.168-.853.295-1.388.295-1.56 0-2.42-1.142-2.42-2.917 0-1.776.86-2.953 2.42-2.953.322 0 .622.047 1.075.234.332-.597.471-.785.977-1.76-.531-.303-1.336-.43-2.034-.43-2.28 0-4.544 1.43-4.544 4.909 0 3.478 2.263 4.873 4.544 4.873Z" fill="#fff" fill-rule="evenodd" data-name="Path 12"/></g></svg>