<svg xmlns="http://www.w3.org/2000/svg" width="151.979" height="35.358" viewBox="884.055 2387.295 151.979 35.358"><g data-name="workshop-full-mark"><path d="M888.29 2390.947h28.054v27.784H888.29v-27.784z" fill="#fff" fill-rule="evenodd" data-name="Rectangle 6"/><path d="M915.315 2387.295h-27.163a4.11 4.11 0 0 0-4.097 4.097v27.163a4.11 4.11 0 0 0 4.097 4.098h27.163a4.11 4.11 0 0 0 4.098-4.098v-27.163a4.11 4.11 0 0 0-4.098-4.097m-15.822 23.12a1.962 1.962 0 0 1-2.661-.791l-5.932-10.944a1.963 1.963 0 1 1 3.452-1.871l5.932 10.943a1.964 1.964 0 0 1-.79 2.663m8.678 4.162h-6.468a1.122 1.122 0 1 1 0-2.244h6.468a1.122 1.122 0 1 1 0 2.244m4.448-15.837-6.434 10.944a1.964 1.964 0 0 1-3.441-.101l-2.79-5.45a1.964 1.964 0 1 1 3.497-1.79l1.16 2.268 4.623-7.862a1.964 1.964 0 1 1 3.385 1.991" fill="#0d9ce4" fill-rule="evenodd" data-name="Path 1"/><g data-name="Group 3"><path d="M952.086 2397.053h-2.12a.27.27 0 0 0-.26.198l-3.086 11.162-3.285-11.166a.27.27 0 0 0-.259-.194h-2.332a.27.27 0 0 0-.259.194l-3.285 11.166-3.086-11.162a.27.27 0 0 0-.26-.198h-2.12a.27.27 0 0 0-.26.346l4.39 15.01a.27.27 0 0 0 .259.194h2.162a.27.27 0 0 0 .259-.194l3.367-11.448 3.387 11.449a.27.27 0 0 0 .259.193h2.162a.27.27 0 0 0 .26-.195l4.366-15.01a.27.27 0 0 0-.259-.345Z" fill="#494949" fill-rule="evenodd" data-name="Path 2"/><path d="M962.453 2403.386a5.669 5.669 0 0 0-7.972 0 5.658 5.658 0 0 0-1.19 1.759 5.41 5.41 0 0 0-.436 2.163 5.498 5.498 0 0 0 1.628 3.935 5.685 5.685 0 0 0 1.78 1.18c1.413.579 2.997.579 4.409 0a5.686 5.686 0 0 0 1.78-1.18 5.498 5.498 0 0 0 1.628-3.935 5.4 5.4 0 0 0-.436-2.163 5.657 5.657 0 0 0-1.19-1.759Zm-.948 3.923c.004.448-.07.894-.217 1.318-.13.374-.335.717-.601 1.01-.267.283-.59.507-.948.657a3.447 3.447 0 0 1-2.543 0 2.778 2.778 0 0 1-.948-.657 2.918 2.918 0 0 1-.6-1.01 4.107 4.107 0 0 1 0-2.637c.129-.374.333-.718.6-1.01.267-.283.59-.506.948-.657a3.445 3.445 0 0 1 2.542 0c.359.15.682.375.949.657.266.293.47.636.6 1.01.149.423.222.87.218 1.318Z" fill="#494949" fill-rule="evenodd" data-name="Path 3"/><path d="M973.16 2401.901a3.331 3.331 0 0 0-1.943.008 4.034 4.034 0 0 0-.92.397 3.714 3.714 0 0 0-.854.7v-.722a.27.27 0 0 0-.27-.27h-1.907a.27.27 0 0 0-.27.27v10.049c0 .149.12.27.27.27h1.908a.27.27 0 0 0 .27-.27v-5.046c0-1.026.224-1.784.667-2.252.44-.465 1.095-.7 1.946-.7.14 0 .28.012.417.037.15.028.3.062.445.101a.27.27 0 0 0 .34-.249l.085-2.056a.27.27 0 0 0-.184-.267Z" fill="#494949" fill-rule="evenodd" data-name="Path 4"/><path d="m980.745 2406.873 4.496-4.374a.27.27 0 0 0-.188-.464h-2.65a.27.27 0 0 0-.192.08l-3.864 3.883v-9.693a.27.27 0 0 0-.27-.27h-1.907a.27.27 0 0 0-.27.27v16.028a.27.27 0 0 0 .27.27h1.908a.27.27 0 0 0 .27-.27v-4.509l4.193 4.689a.27.27 0 0 0 .2.09h2.714a.27.27 0 0 0 .198-.454l-4.908-5.276Z" fill="#494949" fill-rule="evenodd" data-name="Path 5"/><path d="M994.674 2407.21a3.501 3.501 0 0 0-1.011-.598 9.281 9.281 0 0 0-1.2-.374 81.293 81.293 0 0 0-.767-.149c-.268-.05-.53-.13-.78-.237a2.005 2.005 0 0 1-.599-.392.691.691 0 0 1-.203-.526.647.647 0 0 1 .363-.604c.32-.173.679-.26 1.042-.25a2.16 2.16 0 0 1 1.084.25c.292.166.55.385.762.645a.27.27 0 0 0 .373.047l1.484-1.124a.27.27 0 0 0 .067-.357 3.37 3.37 0 0 0-1.612-1.38 5.445 5.445 0 0 0-3.513-.2c-.47.126-.914.333-1.313.611-.391.276-.715.636-.949 1.053-.249.46-.374.977-.363 1.5-.013.46.084.918.285 1.333.18.352.44.659.756.897.319.235.672.42 1.048.547.38.131.78.248 1.202.35.21.041.45.094.723.156.253.059.5.139.74.24.205.087.391.214.547.374.13.138.198.323.19.512a.652.652 0 0 1-.127.401 1.175 1.175 0 0 1-.381.328 2.006 2.006 0 0 1-.58.205c-.222.045-.45.068-.678.069a2.322 2.322 0 0 1-1.255-.32 5.683 5.683 0 0 1-.992-.788.27.27 0 0 0-.362-.018l-1.442 1.187a.27.27 0 0 0-.046.367 4.228 4.228 0 0 0 1.802 1.49c.732.28 1.512.417 2.296.402.516 0 1.031-.06 1.534-.177a4.218 4.218 0 0 0 1.392-.59 3.316 3.316 0 0 0 1.015-1.071 3.066 3.066 0 0 0 .399-1.59 3.125 3.125 0 0 0-.247-1.3 2.68 2.68 0 0 0-.684-.92Z" fill="#494949" fill-rule="evenodd" data-name="Path 6"/><path d="M1006.702 2402.744a3.42 3.42 0 0 0-1.265-.748 4.656 4.656 0 0 0-1.474-.236 4.425 4.425 0 0 0-2.188.532c-.334.183-.635.42-.892.701v-6.688a.27.27 0 0 0-.27-.27h-1.907a.27.27 0 0 0-.27.27v16.028a.27.27 0 0 0 .27.27h1.907a.27.27 0 0 0 .27-.27v-5.173c-.01-.48.057-.96.198-1.42.11-.352.292-.676.536-.952.217-.237.486-.42.787-.534a2.749 2.749 0 0 1 1.781-.05c.236.08.451.21.63.383.198.201.35.443.444.708.123.354.182.727.173 1.102v5.936c0 .149.12.27.27.27h1.908a.27.27 0 0 0 .27-.27v-6.466a4.863 4.863 0 0 0-.317-1.83 3.607 3.607 0 0 0-.86-1.293Z" fill="#494949" fill-rule="evenodd" data-name="Path 7"/><path d="M1020.394 2403.386a5.668 5.668 0 0 0-7.972 0 5.662 5.662 0 0 0-1.191 1.759 5.414 5.414 0 0 0-.435 2.163 5.494 5.494 0 0 0 1.628 3.935 5.683 5.683 0 0 0 1.78 1.18c1.412.579 2.996.579 4.408 0a5.687 5.687 0 0 0 1.78-1.18 5.498 5.498 0 0 0 1.628-3.935 5.402 5.402 0 0 0-.436-2.163 5.657 5.657 0 0 0-1.19-1.759Zm-.949 3.923c.005.448-.069.894-.217 1.318-.13.374-.334.717-.6 1.01-.268.283-.59.507-.95.657a3.446 3.446 0 0 1-2.542 0 2.778 2.778 0 0 1-.948-.657 2.923 2.923 0 0 1-.6-1.01 4.113 4.113 0 0 1 0-2.637c.13-.374.334-.717.6-1.01.267-.282.59-.506.948-.657a3.445 3.445 0 0 1 2.543 0c.358.15.681.375.948.657.267.293.47.636.6 1.01.149.423.222.87.218 1.318Z" fill="#494949" fill-rule="evenodd" data-name="Path 8"/><path d="M1035.656 2405.147a5.354 5.354 0 0 0-1.083-1.774 4.952 4.952 0 0 0-1.703-1.189 5.617 5.617 0 0 0-2.216-.424 4.967 4.967 0 0 0-2.095.47c-.435.197-.833.469-1.175.804v-.75a.27.27 0 0 0-.27-.27h-1.908a.27.27 0 0 0-.27.27v16.027c0 .15.121.27.27.27h1.908a.27.27 0 0 0 .27-.27v-6.713c.326.32.704.584 1.119.777.672.32 1.407.485 2.151.482.76.01 1.514-.134 2.216-.424a5.02 5.02 0 0 0 1.702-1.176c.475-.51.844-1.111 1.084-1.766a6.438 6.438 0 0 0 0-4.344Zm-2.197 2.161a3.88 3.88 0 0 1-.217 1.319c-.13.373-.335.717-.601 1.01-.267.283-.59.506-.949.657a3.445 3.445 0 0 1-2.542 0 2.779 2.779 0 0 1-.948-.657 2.922 2.922 0 0 1-.601-1.01 4.111 4.111 0 0 1 0-2.637c.13-.374.334-.718.601-1.01.267-.283.59-.507.948-.657a3.448 3.448 0 0 1 2.542 0c.359.15.682.374.949.657.266.293.47.636.6 1.01.149.424.222.87.218 1.318Z" fill="#494949" fill-rule="evenodd" data-name="Path 9"/></g></g></svg>